<?xml version="1.0" encoding="UTF-8"?>
<svg xmlns="http://www.w3.org/2000/svg" xmlns:xlink="http://www.w3.org/1999/xlink" width="27px" height="37px" viewBox="0 0 27 37" version="1.1">
<g id="surface1">
<path style=" stroke:none;fill-rule:evenodd;fill:rgb(100%,100%,100%);fill-opacity:1;" d="M 13.460938 0 C 6.015625 0 0 8.480469 0 18.96875 C 0 27.355469 3.855469 34.453125 9.203125 36.964844 C 9.871094 37.152344 10.117188 36.554688 10.117188 36.054688 C 10.117188 35.613281 10.09375 34.105469 10.09375 32.535156 C 6.351562 33.667969 5.570312 30.273438 5.570312 30.273438 C 4.96875 28.078125 4.078125 27.511719 4.078125 27.511719 C 2.851562 26.347656 4.167969 26.347656 4.167969 26.347656 C 5.527344 26.476562 6.238281 28.296875 6.238281 28.296875 C 7.441406 31.1875 9.382812 30.371094 10.160156 29.867188 C 10.273438 28.640625 10.628906 27.792969 11.007812 27.324219 C 8.023438 26.882812 4.878906 25.25 4.878906 17.964844 C 4.878906 15.890625 5.414062 14.195312 6.261719 12.875 C 6.128906 12.40625 5.660156 10.457031 6.394531 7.851562 C 6.394531 7.851562 7.53125 7.347656 10.09375 9.796875 C 11.191406 9.382812 12.324219 9.171875 13.460938 9.171875 C 14.597656 9.171875 15.753906 9.390625 16.824219 9.796875 C 19.386719 7.347656 20.523438 7.851562 20.523438 7.851562 C 21.257812 10.457031 20.792969 12.40625 20.65625 12.875 C 21.527344 14.195312 22.039062 15.890625 22.039062 17.964844 C 22.039062 25.25 18.898438 26.851562 15.890625 27.324219 C 16.378906 27.917969 16.800781 29.050781 16.800781 30.839844 C 16.800781 33.382812 16.78125 35.425781 16.78125 36.054688 C 16.78125 36.554688 17.027344 37.152344 17.695312 36.964844 C 23.042969 34.453125 26.898438 27.355469 26.898438 18.96875 C 26.917969 8.480469 20.878906 0 13.460938 0 Z M 13.460938 0 "/>
</g>
</svg>
